<?xml version="1.0" encoding="UTF-8" standalone="no"?>
<svg
   id="visual"
   viewBox="0 0 900 600"
   width="900"
   height="600"
   version="1.1"
   xmlns:inkscape="http://www.inkscape.org/namespaces/inkscape"
   xmlns="http://www.w3.org/2000/svg"
   xmlns:svg="http://www.w3.org/2000/svg">
  <defs
     id="defs22" />
  <path
     d="m 0,432 21.5,-7.5 C 43,417 86,402 128.8,388.2 c 42.9,-13.9 85.5,-26.5 128.4,-23.4 42.8,3.2 85.8,22.2 128.6,28.7 42.9,6.5 85.5,0.5 128.4,5.5 42.8,5 85.8,21 128.6,23.3 42.9,2.4 85.5,-9 128.4,-10.3 42.8,-1.3 85.8,7.3 107.3,11.7 L 900,428 v 173 h -21.5 c -21.5,0 -64.5,0 -107.3,0 -42.9,0 -85.5,0 -128.4,0 -42.8,0 -85.8,0 -128.6,0 -42.9,0 -85.5,0 -128.4,0 -42.8,0 -85.8,0 -128.6,0 -42.9,0 -85.5,0 -128.4,0 C 86,601 43,601 21.5,601 H 0 Z"
     fill="#fa7268"
     id="path9" />
  <path
     d="m 0,435 21.5,5.5 C 43,446 86,457 128.8,457.5 171.7,458 214.3,448 257.2,441 300,434 343,430 385.8,428.8 c 42.9,-1.1 85.5,0.5 128.4,1.4 42.8,0.8 85.8,0.8 128.6,6 42.9,5.1 85.5,15.5 128.4,10.8 42.8,-4.7 85.8,-24.3 107.3,-34.2 L 900,403 v 198 h -21.5 c -21.5,0 -64.5,0 -107.3,0 -42.9,0 -85.5,0 -128.4,0 -42.8,0 -85.8,0 -128.6,0 -42.9,0 -85.5,0 -128.4,0 -42.8,0 -85.8,0 -128.6,0 -42.9,0 -85.5,0 -128.4,0 C 86,601 43,601 21.5,601 H 0 Z"
     fill="#ef5f67"
     id="path11" />
  <path
     d="m 0,448 21.5,-1.3 c 21.5,-1.4 64.5,-4 107.3,1.6 42.9,5.7 85.5,19.7 128.4,24.5 42.8,4.9 85.8,0.5 128.6,2.5 42.9,2 85.5,10.4 128.4,12.2 42.8,1.8 85.8,-2.8 128.6,-3.8 42.9,-1 85.5,1.6 128.4,-3.5 C 814,475 857,462 878.5,455.5 L 900,449 v 152 h -21.5 c -21.5,0 -64.5,0 -107.3,0 -42.9,0 -85.5,0 -128.4,0 -42.8,0 -85.8,0 -128.6,0 -42.9,0 -85.5,0 -128.4,0 -42.8,0 -85.8,0 -128.6,0 -42.9,0 -85.5,0 -128.4,0 C 86,601 43,601 21.5,601 H 0 Z"
     fill="#e34c67"
     id="path13" />
  <path
     d="m 0,521 21.5,-1.3 c 21.5,-1.4 64.5,-4 107.3,-7.2 42.9,-3.2 85.5,-6.8 128.4,-5.3 42.8,1.5 85.8,8.1 128.6,13 42.9,4.8 85.5,7.8 128.4,2.8 42.8,-5 85.8,-18 128.6,-23.2 42.9,-5.1 85.5,-2.5 128.4,-1.5 42.8,1 85.8,0.4 107.3,0 L 900,498 v 103 h -21.5 c -21.5,0 -64.5,0 -107.3,0 -42.9,0 -85.5,0 -128.4,0 -42.8,0 -85.8,0 -128.6,0 -42.9,0 -85.5,0 -128.4,0 -42.8,0 -85.8,0 -128.6,0 -42.9,0 -85.5,0 -128.4,0 C 86,601 43,601 21.5,601 H 0 Z"
     fill="#d53867"
     id="path15" />
  <path
     d="m 0,568 21.5,-4.7 c 21.5,-4.6 64.5,-14 107.3,-16.6 42.9,-2.7 85.5,1.3 128.4,2.5 42.8,1.1 85.8,-0.5 128.6,-2.7 42.9,-2.2 85.5,-4.8 128.4,-7.3 42.8,-2.5 85.8,-4.9 128.6,-2.7 42.9,2.2 85.5,8.8 128.4,13.7 42.8,4.8 85.8,7.8 107.3,9.3 L 900,561 v 40 h -21.5 c -21.5,0 -64.5,0 -107.3,0 -42.9,0 -85.5,0 -128.4,0 -42.8,0 -85.8,0 -128.6,0 -42.9,0 -85.5,0 -128.4,0 -42.8,0 -85.8,0 -128.6,0 -42.9,0 -85.5,0 -128.4,0 C 86,601 43,601 21.5,601 H 0 Z"
     fill="#c62368"
     id="path17" />
</svg>
